<svg id="Layer_1" data-name="Layer 1" xmlns="http://www.w3.org/2000/svg" viewBox="0 0 1702 418.02"><defs><style>.cls-1{fill:#383a37;}</style></defs><title>navbar-logo</title><polygon class="cls-1" points="308.11 75.02 308.11 253.53 308.11 253.53 197.91 189.9 87.7 253.53 87.7 253.53 87.7 75.02 43.31 100.64 43.31 279.16 87.7 304.79 87.7 304.79 197.91 241.16 197.91 241.16 197.91 241.16 197.91 241.16 197.91 241.16 308.11 304.79 308.11 304.79 352.5 279.16 352.5 100.64 308.11 75.02"/><path class="cls-1" d="M1584.66,76H1341.8V305.78h242.86L1651,190.89ZM1559,261.39H1386.19v-141H1559l40.7,70.49Z" transform="translate(1 -0.99)"/><path class="cls-1" d="M1609.67,32.7H1298.49V349.09h311.18L1701,190.89Zm-12.5,294.73h-277V54.35h277L1676,190.89Z" transform="translate(1 -0.99)"/><path class="cls-1" d="M1217.9,279.07l-.12-79.33-15.34-8.86,15.34-8.85V100.56L1173.4,74.93H908.71V279.07L953.1,304.7V213.09h220.3v93.76ZM953.1,168.7V119.32h220.3V168.7Z" transform="translate(1 -0.99)"/><path class="cls-1" d="M1185,31.62H865.4V304.08l131,75.64V256.4h133.67V381.87l131-75.64V75.56ZM974.76,234.74V342.21l-87.7-50.63V53.28H1179.2l60.24,34.78v203.1l-87.7,53.2V234.74Z" transform="translate(1 -0.99)"/><path class="cls-1" d="M740.31,74.93H519.9l-44.39,25.63V279.07L519.9,304.7V213.09H740.31V304.7l44.39-25.63V100.56Zm0,93.76H519.9V119.32H740.31Z" transform="translate(1 -0.99)"/><path class="cls-1" d="M751.92,31.62H508.3L432.2,75.56V304.08l131,75.64V256.4H697V379.72l131-75.64V75.56Zm54.44,260-87.7,50.63V234.74H541.56V342.21l-87.7-50.63V88.06L514.1,53.28h232l60.24,34.78Z" transform="translate(1 -0.99)"/><path class="cls-1" d="M263.8,1V179.5l-66.89-38.62L130,179.5V1L-1,76.63V305.15L196.91,419,394.81,305.15V76.63ZM373.16,292.65,196.91,394,20.66,292.65V89.13l87.7-50.63V217l88.55-51.12L285.46,217V38.5l87.7,50.63Z" transform="translate(1 -0.99)"/><polygon class="cls-1" points="231.27 285.43 197.91 266.16 164.54 285.43 197.91 304.62 231.27 285.43"/><polygon class="cls-1" points="253.05 336.34 286.32 317.21 252.95 297.94 219.62 317.11 253.05 336.34"/><polygon class="cls-1" points="142.86 297.94 109.5 317.21 142.76 336.34 176.19 317.11 142.86 297.94"/><polygon class="cls-1" points="164.48 348.84 197.91 368.06 231.33 348.84 197.91 329.61 164.48 348.84"/></svg>